<svg width="118" height="64" viewBox="0 0 118 64" fill="none" xmlns="http://www.w3.org/2000/svg">
<g filter="url(#filter0_dd_6_127)">
<rect x="4" width="110" height="56" rx="12" fill="#030712" fill-opacity="0.1"/>
<path d="M59 40C57.4241 40 55.8637 39.6896 54.4078 39.0866C52.9519 38.4835 51.629 37.5996 50.5147 36.4853C49.4004 35.371 48.5165 34.0481 47.9134 32.5922C47.3104 31.1363 47 29.5759 47 28C47 26.4241 47.3104 24.8637 47.9134 23.4078C48.5165 21.9519 49.4004 20.629 50.5147 19.5147C51.629 18.4004 52.9519 17.5165 54.4078 16.9134C55.8637 16.3104 57.4241 16 59 16C60.5759 16 62.1363 16.3104 63.5922 16.9134C65.0481 17.5165 66.371 18.4004 67.4853 19.5147C68.5996 20.629 69.4835 21.9519 70.0866 23.4078C70.6896 24.8637 71 26.4241 71 28C71 29.5759 70.6896 31.1363 70.0866 32.5922C69.4835 34.0481 68.5996 35.371 67.4853 36.4853C66.371 37.5996 65.0481 38.4835 63.5922 39.0866C62.1363 39.6896 60.5759 40 59 40ZM59 40V30.6667M56.3333 28C56.3333 28.7072 56.6143 29.3855 57.1144 29.8856C57.6145 30.3857 58.2928 30.6667 59 30.6667M56.3333 28C56.3333 27.2928 56.6143 26.6145 57.1144 26.1144C57.6145 25.6143 58.2928 25.3333 59 25.3333C59.7072 25.3333 60.3855 25.6143 60.8856 26.1144C61.3857 26.6145 61.6667 27.2928 61.6667 28M56.3333 28L47.3333 25.3333M59 30.6667C59.7072 30.6667 60.3855 30.3857 60.8856 29.8856C61.3857 29.3855 61.6667 28.7072 61.6667 28M61.6667 28L70.6667 25.3333" stroke="#030712" stroke-opacity="0.7" stroke-width="2" stroke-linecap="round" stroke-linejoin="round"/>
</g>
<defs>
<filter id="filter0_dd_6_127" x="0" y="0" width="118" height="64" filterUnits="userSpaceOnUse" color-interpolation-filters="sRGB">
<feFlood flood-opacity="0" result="BackgroundImageFix"/>
<feColorMatrix in="SourceAlpha" type="matrix" values="0 0 0 0 0 0 0 0 0 0 0 0 0 0 0 0 0 0 127 0" result="hardAlpha"/>
<feOffset dy="4"/>
<feGaussianBlur stdDeviation="2"/>
<feComposite in2="hardAlpha" operator="out"/>
<feColorMatrix type="matrix" values="0 0 0 0 0 0 0 0 0 0 0 0 0 0 0 0 0 0 0.25 0"/>
<feBlend mode="normal" in2="BackgroundImageFix" result="effect1_dropShadow_6_127"/>
<feColorMatrix in="SourceAlpha" type="matrix" values="0 0 0 0 0 0 0 0 0 0 0 0 0 0 0 0 0 0 127 0" result="hardAlpha"/>
<feOffset dy="4"/>
<feGaussianBlur stdDeviation="2"/>
<feComposite in2="hardAlpha" operator="out"/>
<feColorMatrix type="matrix" values="0 0 0 0 0 0 0 0 0 0 0 0 0 0 0 0 0 0 0.25 0"/>
<feBlend mode="normal" in2="effect1_dropShadow_6_127" result="effect2_dropShadow_6_127"/>
<feBlend mode="normal" in="SourceGraphic" in2="effect2_dropShadow_6_127" result="shape"/>
</filter>
</defs>
</svg>
